<?xml version="1.0" standalone="no"?>
<!DOCTYPE svg PUBLIC "-//W3C//DTD SVG 20010904//EN"
 "http://www.w3.org/TR/2001/REC-SVG-20010904/DTD/svg10.dtd">
<svg version="1.0" xmlns="http://www.w3.org/2000/svg"
 width="200.000000pt" height="240.000000pt" viewBox="0 0 200.000000 240.000000"
 preserveAspectRatio="xMidYMid meet">

<g transform="translate(0.000000,240.000000) scale(0.100000,-0.100000)"
fill="#000000" stroke="none">
<path d="M1008 1723 c-2 -154 1 -247 9 -275 9 -36 11 1 11 212 0 140 -3 264
-8 275 -5 12 -10 -74 -12 -212z"/>
<path d="M564 1865 c-27 -19 -63 -43 -81 -54 l-32 -19 15 40 c8 22 14 46 14
52 -1 27 -117 -139 -124 -177 -1 -7 -7 -28 -13 -47 -6 -19 -14 -71 -17 -115
-6 -76 -6 -78 8 -47 8 17 32 78 52 135 52 146 54 150 59 145 3 -2 -5 -29 -16
-59 l-20 -54 98 101 c54 55 104 108 112 117 22 28 -3 20 -55 -18z"/>
<path d="M1460 1863 c0 -21 8 -33 30 -45 17 -10 35 -28 40 -40 8 -20 9 -21 9
-3 1 10 -16 37 -36 59 -35 36 -36 38 -6 15 41 -32 53 -54 57 -112 4 -57 17
-75 36 -52 11 14 10 17 -6 21 -16 4 -19 12 -16 44 4 35 -1 44 -43 89 -26 28
-52 51 -56 51 -5 0 -9 -12 -9 -27z"/>
<path d="M1385 1828 c17 -54 42 -84 95 -109 30 -15 56 -24 58 -20 1 3 -4 26
-11 51 -10 39 -19 48 -57 67 -25 12 -56 24 -68 28 -22 6 -23 5 -17 -17z m130
-99 c11 -12 -10 2 -47 32 -36 30 -67 58 -67 62 -1 10 85 -61 114 -94z"/>
<path d="M1350 1811 c0 -23 14 -41 31 -41 16 0 17 3 7 25 -11 24 -38 35 -38
16z"/>
<path d="M463 1696 c-60 -56 -71 -73 -96 -142 -15 -42 -26 -78 -25 -79 2 -2
47 62 100 141 53 79 95 144 93 144 -3 0 -35 -29 -72 -64z"/>
<path d="M1366 1721 c30 -47 69 -63 129 -54 58 8 48 23 -15 23 -41 0 -55 5
-78 28 -15 15 -19 19 -7 10 12 -10 36 -20 55 -24 l35 -6 -31 20 c-18 11 -35
25 -38 31 -4 6 -23 11 -42 11 l-34 0 26 -39z"/>
<path d="M301 1664 c-12 -38 -27 -115 -35 -171 -13 -91 -13 -108 3 -168 18
-73 31 -76 31 -8 0 25 7 126 16 225 8 99 13 182 10 185 -2 3 -14 -26 -25 -63z"/>
<path d="M1520 1645 c0 -8 7 -15 15 -15 8 0 15 7 15 15 0 8 -7 15 -15 15 -8 0
-15 -7 -15 -15z"/>
<path d="M1577 1644 c-9 -10 2 -24 19 -24 8 0 14 7 14 15 0 15 -21 21 -33 9z"/>
<path d="M448 1593 c-25 -27 -59 -69 -76 -95 -16 -26 -33 -44 -37 -40 -5 4 -5
2 -2 -4 4 -7 0 -28 -8 -48 -8 -19 -15 -50 -15 -68 l0 -33 33 50 c29 42 159
285 153 285 -1 0 -23 -21 -48 -47z"/>
<path d="M1580 1607 c0 -11 29 -67 35 -67 3 0 5 6 5 14 0 14 -39 67 -40 53z"/>
<path d="M1558 1554 c-3 -61 4 -90 24 -107 31 -26 33 -14 9 44 -12 28 -20 53
-18 56 3 2 10 -12 17 -31 15 -45 26 -53 32 -21 4 18 -4 32 -28 56 l-34 33 -2
-30z"/>
<path d="M1637 1515 c-22 -81 -21 -91 3 -122 l20 -26 0 42 c0 23 7 58 15 78
16 38 13 64 -8 82 -10 8 -17 -4 -30 -54z"/>
<path d="M1510 1521 c0 -27 5 -41 16 -45 23 -9 26 -3 19 37 -10 52 -35 57 -35
8z"/>
<path d="M1697 1510 c-27 -54 -34 -114 -18 -170 11 -40 22 -8 28 81 3 44 10
82 14 85 5 3 7 -8 4 -23 -2 -15 -6 -56 -9 -91 -3 -35 -13 -73 -21 -85 -27 -38
-16 -38 20 0 20 21 38 48 42 61 8 34 -2 122 -19 162 l-14 34 -27 -54z"/>
<path d="M1470 1475 c0 -50 49 -113 111 -140 80 -37 59 -1 -57 92 -21 18 -34
32 -29 32 6 0 42 -28 80 -63 57 -52 68 -67 57 -77 -18 -19 -118 32 -140 71
-23 40 -46 41 -26 0 28 -55 109 -99 159 -86 29 7 42 -9 19 -22 -19 -10 -11
-32 12 -32 11 0 13 10 10 43 -7 83 -51 134 -149 176 -37 16 -47 17 -47 6z"/>
<path d="M205 1405 c7 -100 25 -183 58 -260 25 -57 26 -58 33 -31 8 34 -44
259 -76 328 l-20 43 5 -80z"/>
<path d="M443 1468 c-13 -6 -23 -14 -23 -17 0 -4 -19 -31 -41 -61 -57 -75 -88
-147 -82 -187 3 -18 9 -33 14 -33 5 0 36 57 70 128 34 70 68 139 75 155 8 15
13 27 12 26 -2 0 -13 -5 -25 -11z"/>
<path d="M399 1268 c-44 -43 -85 -114 -96 -168 -6 -30 13 -127 27 -135 4 -3
16 36 25 86 11 56 33 122 57 171 21 45 37 83 35 85 -3 2 -24 -16 -48 -39z"/>
<path d="M1720 1286 c0 -21 21 -31 30 -15 5 7 6 17 4 21 -9 14 -34 9 -34 -6z"/>
<path d="M174 1233 c13 -27 31 -77 40 -113 15 -56 102 -208 113 -197 4 5 -71
227 -92 267 -18 36 -63 90 -76 90 -4 0 3 -21 15 -47z"/>
<path d="M1680 1245 c0 -8 7 -15 15 -15 8 0 15 7 15 15 0 8 -7 15 -15 15 -8 0
-15 -7 -15 -15z"/>
<path d="M1585 1210 c-21 -34 -22 -67 -3 -91 l19 -24 -3 38 c-2 20 -1 37 3 37
5 0 9 -18 11 -40 l3 -40 17 29 c15 28 15 32 -1 62 -19 36 -35 46 -46 29z"/>
<path d="M1684 1185 c5 -23 4 -35 -3 -31 -14 9 -49 -40 -61 -84 -13 -47 9
-153 32 -158 32 -6 48 57 46 182 -1 64 -6 120 -11 123 -6 4 -7 -9 -3 -32z
m-15 -151 c-4 -47 -12 -91 -18 -97 -8 -8 -8 -1 -1 24 6 18 10 59 10 90 0 45 5
69 14 69 1 0 -1 -39 -5 -86z"/>
<path d="M153 1185 c3 -11 11 -39 18 -63 7 -24 21 -48 31 -53 22 -12 21 -14 3
48 -8 27 -24 58 -36 69 -21 19 -22 19 -16 -1z"/>
<path d="M442 1157 c-41 -42 -91 -152 -98 -213 -4 -39 -1 -55 15 -79 16 -23
21 -26 21 -11 0 42 52 230 76 277 15 27 25 52 22 54 -2 3 -18 -10 -36 -28z"/>
<path d="M1731 1141 c-12 -16 -21 -43 -21 -61 l0 -31 35 27 c34 26 41 46 29
78 -9 23 -20 20 -43 -13z"/>
<path d="M1511 1091 c8 -74 18 -100 53 -141 l21 -25 -23 20 c-29 24 -42 47
-58 105 -12 43 -12 44 -13 12 -1 -18 4 -43 10 -55 19 -36 71 -86 84 -81 7 3
16 1 20 -5 17 -28 21 -6 9 47 -8 31 -14 70 -14 86 0 20 -12 40 -39 67 -21 22
-43 39 -48 39 -5 0 -6 -28 -2 -69z m48 -43 c7 -24 22 -58 32 -77 11 -18 18
-36 15 -38 -6 -6 -40 61 -56 112 -7 22 -18 47 -24 55 -9 13 -9 13 5 3 9 -7 21
-32 28 -55z"/>
<path d="M1763 1075 c-43 -28 -53 -40 -53 -62 0 -27 0 -27 48 17 l47 45 -46
-50 c-25 -28 -56 -67 -68 -87 l-22 -37 30 10 c59 21 131 122 131 187 0 18 -9
15 -67 -23z"/>
<path d="M167 1063 c-10 -9 -8 -95 1 -111 6 -9 12 -5 21 14 14 31 13 32 70
-68 17 -31 55 -76 83 -99 l50 -43 -7 35 c-8 37 -146 242 -179 265 -23 16 -30
17 -39 7z"/>
<path d="M452 1047 c-6 -7 -23 -48 -37 -92 -23 -67 -26 -91 -21 -144 5 -55 10
-70 38 -98 17 -18 33 -32 34 -30 1 1 -4 29 -12 62 -23 100 -15 213 21 298 8
20 -7 23 -23 4z"/>
<path d="M1821 1023 c-28 -52 -50 -77 -95 -107 -31 -20 -34 -26 -18 -26 30 0
73 18 89 38 18 23 49 81 57 110 12 36 -12 26 -33 -15z"/>
<path d="M473 935 c-29 -99 -24 -185 17 -265 23 -44 110 -128 173 -164 26 -16
46 -31 43 -33 -3 -3 -24 8 -48 24 -24 16 -63 43 -88 60 -60 41 -260 147 -266
141 -8 -9 110 -114 161 -143 28 -16 53 -33 56 -38 3 -5 10 -8 15 -8 5 0 43
-11 85 -24 78 -24 122 -24 112 1 -5 13 -60 51 -96 66 -24 10 -92 118 -118 187
-12 33 -24 93 -27 146 -7 89 -7 90 -19 50z"/>
<path d="M1581 896 c-12 -14 -5 -26 16 -26 15 0 18 26 4 34 -5 3 -14 0 -20 -8z"/>
<path d="M1633 881 c4 -15 -2 -22 -25 -30 -16 -6 -28 -16 -26 -23 7 -20 28
-21 35 -1 4 10 15 24 25 31 22 16 24 42 2 42 -11 0 -15 -6 -11 -19z"/>
<path d="M1690 865 c0 -10 7 -15 18 -13 21 4 19 22 -2 26 -10 2 -16 -3 -16
-13z"/>
<path d="M1647 843 c-4 -3 -7 -12 -7 -20 0 -15 26 -18 34 -4 7 11 -18 33 -27
24z"/>
<path d="M1480 829 c-77 -31 -130 -106 -130 -185 0 -28 -7 -56 -18 -72 -17
-24 -33 -57 -36 -72 -1 -3 -5 -11 -10 -19 -10 -16 34 8 75 40 l24 20 -38 -15
-38 -15 31 42 c16 23 51 63 77 87 44 43 84 113 98 173 8 29 3 31 -35 16z m-36
-76 c-14 -16 -39 -55 -55 -88 -29 -60 -41 -62 -15 -2 18 42 73 117 86 117 6 0
-1 -12 -16 -27z"/>
<path d="M240 795 c0 -36 16 -47 27 -19 4 12 21 1 72 -49 67 -65 190 -142 171
-108 -5 10 -16 23 -24 30 -9 8 -13 18 -9 25 3 6 3 8 -2 4 -4 -4 -46 29 -93 72
-65 60 -93 80 -114 80 -25 0 -28 -3 -28 -35z"/>
<path d="M1500 740 l-20 -39 35 20 c19 12 35 18 35 15 0 -3 -12 -12 -27 -20
-16 -8 -54 -39 -85 -69 -53 -52 -55 -55 -23 -41 19 8 40 14 47 14 7 -1 -9 -9
-35 -20 -52 -20 -77 -37 -77 -52 0 -6 8 -7 18 -3 9 4 47 11 83 16 75 9 149 36
149 52 0 6 9 20 20 32 10 11 28 30 40 43 l20 22 -38 0 c-29 0 -45 -7 -63 -26
l-24 -26 25 6 c31 8 -46 -28 -80 -38 -21 -6 -21 -4 5 10 33 18 145 123 145
136 0 4 -29 8 -65 8 l-65 0 -20 -40z"/>
<path d="M195 734 c-5 -29 -1 -43 20 -73 37 -55 81 -95 89 -82 4 6 14 11 22
11 8 0 13 -4 10 -8 -3 -5 13 -26 35 -48 33 -32 41 -36 49 -24 7 12 -8 31 -63
82 -41 36 -91 91 -112 122 -21 31 -39 56 -41 56 -1 0 -5 -16 -9 -36z m195
-184 c19 -17 30 -30 25 -30 -6 1 -26 14 -45 30 -19 17 -30 30 -25 30 6 -1 26
-14 45 -30z"/>
<path d="M1756 715 c-22 -31 -72 -87 -113 -123 -55 -51 -70 -70 -63 -82 8 -12
16 -8 49 24 22 22 38 43 35 48 -3 4 2 8 10 8 8 0 18 -5 22 -11 8 -13 52 27 90
82 22 33 25 43 18 75 l-9 36 -39 -57z m-126 -165 c-19 -16 -39 -29 -45 -30 -5
0 6 13 25 30 19 16 39 29 45 30 5 0 -6 -13 -25 -30z"/>
<path d="M1016 692 c-8 -14 -9 -212 -1 -221 13 -12 15 15 13 120 -2 68 -6 109
-12 101z"/>
<path d="M41 643 c26 -44 129 -173 137 -173 3 0 14 7 23 16 18 16 16 20 -32
78 -28 33 -53 66 -56 73 -4 10 -72 43 -89 43 -3 0 5 -17 17 -37z"/>
<path d="M1930 664 c-19 -8 -38 -21 -42 -29 -5 -7 -30 -40 -58 -73 -47 -57
-49 -60 -31 -76 9 -9 20 -16 23 -16 10 0 126 148 143 181 18 33 14 34 -35 13z"/>
<path d="M292 558 c-20 -20 -13 -31 46 -82 137 -117 311 -189 533 -220 45 -7
45 -6 45 22 0 28 -1 29 -83 41 -168 24 -333 95 -456 196 -36 30 -68 55 -70 55
-2 0 -8 -5 -15 -12z"/>
<path d="M1620 514 c-117 -99 -312 -180 -481 -200 -53 -6 -55 -8 -55 -35 0
-16 3 -29 7 -29 3 0 46 7 95 15 202 35 365 109 489 224 37 34 46 48 38 59 -16
26 -26 23 -93 -34z"/>
<path d="M176 452 c-15 -18 -13 -22 41 -73 140 -133 338 -226 565 -265 110
-19 133 -17 134 14 1 25 -5 27 -99 37 -194 21 -451 140 -572 264 -21 23 -42
41 -45 41 -4 0 -14 -8 -24 -18z"/>
<path d="M1755 429 c-121 -124 -378 -243 -572 -264 -94 -10 -100 -12 -99 -37
1 -31 24 -33 134 -14 227 39 425 132 565 265 54 51 56 55 41 73 -10 10 -20 18
-24 18 -3 0 -24 -18 -45 -41z"/>
<path d="M870 395 c35 -20 62 -19 36 0 -11 8 -29 15 -40 15 -19 -1 -19 -2 4
-15z"/>
<path d="M1094 395 c-26 -19 1 -20 36 0 23 13 23 14 4 15 -11 0 -29 -7 -40
-15z"/>
<path d="M490 173 c-14 -6 -51 -46 -46 -51 2 -1 18 4 37 11 19 8 43 17 54 22
l20 7 -20 8 c-24 10 -26 10 -45 3z"/>
<path d="M1468 173 c-30 -7 -20 -17 33 -35 47 -15 49 -15 38 0 -16 21 -41 42
-48 41 -3 -1 -14 -3 -23 -6z"/>
<path d="M1530 172 c0 -10 43 -52 53 -52 3 0 4 6 1 14 -7 17 -54 50 -54 38z"/>
<path d="M420 145 c-13 -14 -20 -25 -16 -25 12 0 56 32 56 41 0 16 -16 10 -40
-16z"/>
</g>
</svg>
